# Blender v2.82 (sub 7) OBJ File: ''
# www.blender.org
o Cube
v 1.000000 1.000000 -1.000000
v 1.000000 -0.188063 -1.000000
v 1.000000 1.000000 1.000000
v 1.000000 -0.188063 1.000000
v -1.000000 1.000000 -1.000000
v -1.000000 -0.188063 -1.000000
v -1.000000 1.000000 1.000000
v -1.000000 -0.188063 1.000000
v -1.000000 -0.188063 -1.000000
v -1.000000 -0.188063 -1.000000
v -1.000000 -0.188063 1.000000
v -1.000000 -0.188063 1.000000
v 1.000000 -0.188063 -1.000000
v 1.000000 -0.188063 -1.000000
v 1.000000 1.000000 -1.000000
v 1.000000 1.000000 -1.000000
v -1.000000 1.000000 1.000000
v -1.000000 1.000000 1.000000
v 1.000000 1.000000 1.000000
v 1.000000 1.000000 1.000000
v 1.000000 -0.188063 1.000000
v 1.000000 -0.188063 1.000000
v -1.000000 1.000000 -1.000000
v -1.000000 1.000000 -1.000000
v 2.482521 0.000000 0.000000
v -3.924736 0.000000 0.000000
v -0.031288 0.669060 4.112274
v -0.031288 0.669060 -4.112891
vt 0.875000 0.500000
vt 0.625000 0.750000
vt 0.625000 0.500000
vt 0.375000 1.000000
vt 0.625000 0.750000
vt 0.375000 0.750000
vt 0.375000 0.250000
vt 0.625000 0.000000
vt 0.375000 0.000000
vt 0.375000 0.500000
vt 0.125000 0.750000
vt 0.125000 0.500000
vt 0.375000 0.750000
vt 0.625000 0.500000
vt 0.375000 0.500000
vt 0.375000 0.500000
vt 0.625000 0.250000
vt 0.375000 0.250000
vt 0.625000 0.750000
vt 0.625000 0.500000
vt 0.375000 0.500000
vt 0.375000 0.750000
vt 0.625000 0.750000
vt 0.375000 0.000000
vt 0.375000 0.250000
vt 0.625000 0.250000
vt 0.625000 0.000000
vt 0.625000 0.250000
vt 0.625000 0.500000
vt 0.625000 0.500000
vt 0.375000 0.750000
vt 0.625000 1.000000
vt 0.625000 1.000000
vt 0.625000 0.750000
vt 0.375000 1.000000
vt 0.375000 0.500000
vt 0.625000 0.250000
vt 0.375000 0.250000
vt 0.875000 0.750000
vt 0.375000 0.750000
vn 0.0000 1.0000 0.0000
vn 0.0000 0.0000 -1.0000
vn 1.0000 0.0000 0.0000
vn 0.0000 -1.0000 0.0000
vn -1.0000 0.0000 0.0000
vn 0.0000 0.0000 1.0000
vn 0.5592 0.8290 0.0000
vn 0.5592 0.0000 -0.8290
vn 0.1258 -0.9920 0.0000
vn 0.5592 0.0000 0.8290
vn -0.3235 0.0000 0.9462
vn -0.0642 -0.9979 0.0000
vn -0.3235 0.9462 0.0000
vn -0.3235 0.0000 -0.9462
vn 0.9493 0.0000 -0.3145
vn 0.9492 0.0000 0.3145
vn -0.9548 0.0000 0.2972
vn 0.0000 0.9944 0.1057
vn 0.0000 -0.9641 0.2655
vn 0.0000 -0.9641 -0.2655
vn 0.0000 0.9944 -0.1057
vn -0.9548 0.0000 -0.2971
s off
f 24/1/1 20/2/1 16/3/1
f 12/4/2 19/5/2 21/6/2
f 9/7/3 7/8/3 11/9/3
f 13/10/4 8/11/4 10/12/4
f 4/13/5 15/14/5 14/15/5
f 2/16/6 5/17/6 6/18/6
f 15/14/7 3/19/7 25/20/7
f 14/15/8 15/14/8 25/21/8
f 4/13/9 14/15/9 25/22/9
f 3/19/10 4/13/10 25/23/10
f 11/9/11 7/8/11 26/24/11
f 9/7/12 11/9/12 26/25/12
f 7/8/13 23/26/13 26/27/13
f 23/26/14 9/7/14 26/28/14
f 1/29/15 2/16/15 28/30/15
f 21/6/16 19/5/16 27/31/16
f 17/32/17 12/4/17 27/33/17
f 19/5/18 17/32/18 27/34/18
f 12/4/19 21/6/19 27/35/19
f 2/16/20 6/18/20 28/36/20
f 5/17/21 1/29/21 28/37/21
f 6/18/22 5/17/22 28/38/22
f 24/1/1 18/39/1 20/2/1
f 12/4/2 17/32/2 19/5/2
f 9/7/3 23/26/3 7/8/3
f 13/10/4 22/40/4 8/11/4
f 4/13/5 3/19/5 15/14/5
f 2/16/6 1/29/6 5/17/6
